<svg xmlns="http://www.w3.org/2000/svg" xmlns:xlink="http://www.w3.org/1999/xlink" width="30" height="30" viewBox="0 0 30 30">
  <defs>
    <clipPath id="clip-calc">
      <rect width="30" height="30"/>
    </clipPath>
  </defs>
  <g id="calc" clip-path="url(#clip-calc)">
    <g id="Icon_awesome-calculator" data-name="Icon awesome-calculator" transform="translate(4.684 3.21)" fill="#fff">
      <path d="M 18.42152404785156 24.32955551147461 L 2.210583448410034 24.32955551147461 C 1.451213359832764 24.32955551147461 0.693903386592865 24.00776672363281 0.1328433901071548 23.44670677185059 C -0.4282166063785553 22.88564491271973 -0.7499966025352478 22.12833595275879 -0.7499966025352478 21.36896514892578 L -0.7499966025352478 2.210585832595825 C -0.7499966025352478 1.451215863227844 -0.4282166063785553 0.6939058303833008 0.1328433901071548 0.1328458487987518 C 0.693903386592865 -0.4282141625881195 1.451213359832764 -0.7500041723251343 2.210583448410034 -0.7500041723251343 L 18.42152404785156 -0.7500041723251343 C 19.18089294433594 -0.7500041723251343 19.93820381164551 -0.4282141625881195 20.49926376342773 0.1328458487987518 C 21.06032371520996 0.6939058303833008 21.38210296630859 1.451215863227844 21.38210296630859 2.210585832595825 L 21.38210296630859 21.36896514892578 C 21.38210296630859 22.12833595275879 21.06032371520996 22.88564491271973 20.49926376342773 23.44670677185059 C 19.93820381164551 24.00776672363281 19.18089294433594 24.32955551147461 18.42152404785156 24.32955551147461 Z M 15.48722362518311 19.88210678100586 L 16.93466377258301 19.88210678100586 L 16.93466377258301 12.53977584838867 L 15.48722362518311 12.53977584838867 L 15.48722362518311 19.88210678100586 Z M 9.592333793640137 19.88210678100586 L 11.03977298736572 19.88210678100586 L 11.03977298736572 18.43466567993164 L 9.592333793640137 18.43466567993164 L 9.592333793640137 19.88210678100586 Z M 3.69744348526001 19.88210678100586 L 5.144883155822754 19.88210678100586 L 5.144883155822754 18.43466567993164 L 3.69744348526001 18.43466567993164 L 3.69744348526001 19.88210678100586 Z M 9.592333793640137 13.98721599578857 L 11.03977298736572 13.98721599578857 L 11.03977298736572 12.53977584838867 L 9.592333793640137 12.53977584838867 L 9.592333793640137 13.98721599578857 Z M 3.69744348526001 13.98721599578857 L 5.144883155822754 13.98721599578857 L 5.144883155822754 12.53977584838867 L 3.69744348526001 12.53977584838867 L 3.69744348526001 13.98721599578857 Z M 3.69744348526001 8.09233570098877 L 16.93466377258301 8.09233570098877 L 16.93466377258301 3.697445869445801 L 3.69744348526001 3.697445869445801 L 3.69744348526001 8.09233570098877 Z" stroke="none"/>
      <path d="M 2.210582733154297 -3.814697265625e-06 C 1.03160285949707 -3.814697265625e-06 3.814697265625e-06 1.031606674194336 3.814697265625e-06 2.210586547851562 L 3.814697265625e-06 21.36896514892578 C 3.814697265625e-06 22.54794502258301 1.03160285949707 23.57955551147461 2.210582733154297 23.57955551147461 L 18.42152404785156 23.57955551147461 C 19.60050392150879 23.57955551147461 20.63210296630859 22.54794502258301 20.63210296630859 21.36896514892578 L 20.63210296630859 2.210586547851562 C 20.63210296630859 1.031606674194336 19.60050392150879 -3.814697265625e-06 18.42152404785156 -3.814697265625e-06 L 2.210582733154297 -3.814697265625e-06 M 17.09517288208008 8.842326164245605 L 3.536933898925781 8.842326164245605 C 3.242183685302734 8.842326164245605 2.947443008422852 8.547585487365723 2.947443008422852 8.252845764160156 L 2.947443008422852 3.536935806274414 C 2.947443008422852 3.242185592651367 3.242183685302734 2.947444915771484 3.536933898925781 2.947444915771484 L 17.09517288208008 2.947444915771484 C 17.38992309570312 2.947444915771484 17.68466377258301 3.242185592651367 17.68466377258301 3.536935806274414 L 17.68466377258301 8.252845764160156 C 17.68466377258301 8.547585487365723 17.38991355895996 8.842326164245605 17.09517288208008 8.842326164245605 M 5.305403709411621 14.73721599578857 L 3.536933898925781 14.73721599578857 C 3.242183685302734 14.73721599578857 2.947443008422852 14.44247627258301 2.947443008422852 14.14773559570312 L 2.947443008422852 12.37926578521729 C 2.947443008422852 12.08451557159424 3.242183685302734 11.78977584838867 3.536933898925781 11.78977584838867 L 5.305403709411621 11.78977584838867 C 5.600143432617188 11.78977584838867 5.894883155822754 12.08451557159424 5.894883155822754 12.37926578521729 L 5.894883155822754 14.14773559570312 C 5.894883155822754 14.44247627258301 5.600143432617188 14.73721599578857 5.305403709411621 14.73721599578857 M 11.20028305053711 14.73721599578857 L 9.43182373046875 14.73721599578857 C 9.137073516845703 14.73721599578857 8.842333793640137 14.44247627258301 8.842333793640137 14.14773559570312 L 8.842333793640137 12.37926578521729 C 8.842333793640137 12.08451557159424 9.137073516845703 11.78977584838867 9.43182373046875 11.78977584838867 L 11.20028305053711 11.78977584838867 C 11.49503326416016 11.78977584838867 11.78977298736572 12.08451557159424 11.78977298736572 12.37926578521729 L 11.78977298736572 14.14773559570312 C 11.78977298736572 14.44247627258301 11.49503326416016 14.73721599578857 11.20028305053711 14.73721599578857 M 17.09517288208008 20.63210678100586 L 15.32670402526855 20.63210678100586 C 15.03196334838867 20.63210678100586 14.73722362518311 20.33735656738281 14.73722362518311 20.04261589050293 L 14.73722362518311 12.37926578521729 C 14.73722362518311 12.08451557159424 15.03196334838867 11.78977584838867 15.32670402526855 11.78977584838867 L 17.09517288208008 11.78977584838867 C 17.38992309570312 11.78977584838867 17.68466377258301 12.08451557159424 17.68466377258301 12.37926578521729 L 17.68466377258301 20.04261589050293 C 17.68466377258301 20.33735656738281 17.38991355895996 20.63210678100586 17.09517288208008 20.63210678100586 M 5.305403709411621 20.63210678100586 L 3.536933898925781 20.63210678100586 C 3.242183685302734 20.63210678100586 2.947443008422852 20.33735656738281 2.947443008422852 20.04261589050293 L 2.947443008422852 18.27415466308594 C 2.947443008422852 17.97940635681152 3.242183685302734 17.68466567993164 3.536933898925781 17.68466567993164 L 5.305403709411621 17.68466567993164 C 5.600143432617188 17.68466567993164 5.894883155822754 17.97940635681152 5.894883155822754 18.27415466308594 L 5.894883155822754 20.04261589050293 C 5.894883155822754 20.33735656738281 5.600143432617188 20.63210678100586 5.305403709411621 20.63210678100586 M 11.20028305053711 20.63210678100586 L 9.43182373046875 20.63210678100586 C 9.137073516845703 20.63210678100586 8.842333793640137 20.33735656738281 8.842333793640137 20.04261589050293 L 8.842333793640137 18.27415466308594 C 8.842333793640137 17.97940635681152 9.137073516845703 17.68466567993164 9.43182373046875 17.68466567993164 L 11.20028305053711 17.68466567993164 C 11.49503326416016 17.68466567993164 11.78977298736572 17.97940635681152 11.78977298736572 18.27415466308594 L 11.78977298736572 20.04261589050293 C 11.78977298736572 20.33735656738281 11.49503326416016 20.63210678100586 11.20028305053711 20.63210678100586 M 2.210582733154297 -1.500003814697266 L 18.42152404785156 -1.500003814697266 C 20.43286323547363 -1.500003814697266 22.13210296630859 0.1992359161376953 22.13210296630859 2.210586547851562 L 22.13210296630859 21.36896514892578 C 22.13210296630859 23.38031578063965 20.43286323547363 25.07955551147461 18.42152404785156 25.07955551147461 L 2.210582733154297 25.07955551147461 C 0.1992435455322266 25.07955551147461 -1.499996185302734 23.38031578063965 -1.499996185302734 21.36896514892578 L -1.499996185302734 2.210586547851562 C -1.499996185302734 0.1992359161376953 0.1992435455322266 -1.500003814697266 2.210582733154297 -1.500003814697266 Z M 16.18466377258301 4.447444915771484 L 4.447443008422852 4.447444915771484 L 4.447443008422852 7.342325210571289 L 16.18466377258301 7.342325210571289 L 16.18466377258301 4.447444915771484 Z" stroke="none" fill="#fff"/>
    </g>
  </g>
</svg>
