<svg xmlns="http://www.w3.org/2000/svg" xmlns:xlink="http://www.w3.org/1999/xlink" width="30" height="30" viewBox="0 0 30 30">
  <defs>
    <clipPath id="clip-favicon_3">
      <rect width="30" height="30"/>
    </clipPath>
  </defs>
  <g id="favicon_3" data-name="favicon – 3" clip-path="url(#clip-favicon_3)">
    <g id="Path_4" data-name="Path 4" transform="translate(21.358 9.556) rotate(90)" fill="none">
      <path d="M6.828.6A1.206,1.206,0,0,1,8.917.6l6.665,11.542a1.206,1.206,0,0,1-1.045,1.81H1.208a1.206,1.206,0,0,1-1.045-1.81Z" stroke="none"/>
      <path d="M 7.872746467590332 2.793500900268555 L 2.582870483398438 11.9547176361084 L 13.16262149810791 11.9547176361084 L 7.872746467590332 2.793500900268555 M 7.872746467590332 -1.9073486328125e-06 C 8.279010772705078 -1.9073486328125e-06 8.685276031494141 0.2010374069213867 8.917446136474609 0.6031179428100586 L 15.58204650878906 12.14513778686523 C 16.04641723632812 12.94937801361084 15.46601676940918 13.9547176361084 14.53734683990479 13.9547176361084 L 1.208146095275879 13.9547176361084 C 0.2794761657714844 13.9547176361084 -0.3009243011474609 12.94937801361084 0.1634464263916016 12.14513778686523 L 6.828046798706055 0.6031179428100586 C 7.060216903686523 0.2010374069213867 7.46648120880127 -1.9073486328125e-06 7.872746467590332 -1.9073486328125e-06 Z" stroke="none" fill="#fff"/>
    </g>
    <g id="Path_5" data-name="Path 5" transform="translate(8.613 20.38) rotate(-90)" fill="none">
      <path d="M6.83.6A1.206,1.206,0,0,1,8.92.6l6.667,11.571a1.206,1.206,0,0,1-1.045,1.809H1.208A1.206,1.206,0,0,1,.163,12.175Z" stroke="none"/>
      <path d="M 7.874985694885254 2.796065330505371 L 2.581395149230957 11.98343276977539 L 13.1685733795166 11.98343276977539 L 7.874985694885254 2.796065330505371 M 7.874983787536621 -1.9073486328125e-06 C 8.281591415405273 -1.9073486328125e-06 8.688198089599609 0.2013626098632812 8.920244216918945 0.6040925979614258 L 15.58708381652832 12.17482280731201 C 16.05046463012695 12.97905254364014 15.47000408172607 13.98343276977539 14.541823387146 13.98343276977539 L 1.208144187927246 13.98343276977539 C 0.279963493347168 13.98343276977539 -0.3004970550537109 12.97905254364014 0.1628837585449219 12.17482280731201 L 6.829723358154297 0.6040925979614258 C 7.061768531799316 0.2013626098632812 7.468376159667969 -1.9073486328125e-06 7.874983787536621 -1.9073486328125e-06 Z" stroke="none" fill="#fff"/>
    </g>
    <g id="Path_6" data-name="Path 6" transform="translate(-28.499 -199.218)" fill="none">
      <path d="M37.717,212.771a1.206,1.206,0,0,1,0-2.091l1.507-.868L49.254,215.6a1.206,1.206,0,0,1,0,2.089l-1.5.863Z" stroke="none"/>
      <path d="M 39.2234992980957 209.8127899169922 L 49.25419616699219 215.604736328125 C 50.05836868286133 216.0690765380859 50.05836868286133 217.2297973632812 49.25419616699219 217.6941223144531 L 47.75883865356445 218.5575866699219 L 37.71671676635742 212.7714996337891 C 36.9112663269043 212.3073883056641 36.9112663269043 211.1450653076172 37.71671676635742 210.6809692382812 L 39.2234992980957 209.8127899169922 Z" stroke="none" fill="#fff"/>
    </g>
  </g>
</svg>
