<svg xmlns="http://www.w3.org/2000/svg" xmlns:xlink="http://www.w3.org/1999/xlink" width="30" height="30" viewBox="0 0 30 30">
  <defs>
    <clipPath id="clip-favico3n_2">
      <rect width="30" height="30"/>
    </clipPath>
  </defs>
  <g id="favico3n_2" data-name="favico3n – 2" clip-path="url(#clip-favico3n_2)">
    <path id="Exclusion_1" data-name="Exclusion 1" d="M21.53,1.556a5.73,5.73,0,0,0-7.845-.006l-.98.883,1.843,1.784.947-.856.006-.006a3.067,3.067,0,0,1,4.2-.006,2.723,2.723,0,0,1,0,3.967,3.067,3.067,0,0,1-4.2.006L9.476,1.556A5.664,5.664,0,0,0,5.557,0,5.623,5.623,0,0,0,1.631,1.556a5.191,5.191,0,0,0,0,7.557,5.647,5.647,0,0,0,3.925,1.556,5.6,5.6,0,0,0,3.92-1.556l2.1-2.006,2.1,2.006a5.723,5.723,0,0,0,7.839.006,5.2,5.2,0,0,0,.011-7.562ZM7.656,7.318a3.067,3.067,0,0,1-4.2.006,2.723,2.723,0,0,1,0-3.967,3.067,3.067,0,0,1,4.2-.006L9.738,5.34Z" transform="translate(3.422 9.666)" fill="#fff"/>
  </g>
</svg>
