<svg xmlns="http://www.w3.org/2000/svg" xmlns:xlink="http://www.w3.org/1999/xlink" width="30" height="30" viewBox="0 0 30 30">
  <defs>
    <clipPath id="clip-start">
      <rect width="30" height="30"/>
    </clipPath>
  </defs>
  <g id="start" clip-path="url(#clip-start)">
    <g id="Path_21" data-name="Path 21" transform="translate(-40.58 -1206.692)" fill="none">
      <path d="M55.58,1232.3a2.064,2.064,0,0,1-1.469-.609l-4.775-4.775a8.961,8.961,0,0,1,0-12.672,8.829,8.829,0,0,1,12.488,0,8.961,8.961,0,0,1,0,12.672l-4.775,4.775A2.064,2.064,0,0,1,55.58,1232.3Zm3-14.607a1,1,0,0,0-1,1v3a1,1,0,1,0,2,0v-3A1,1,0,0,0,58.58,1217.693Zm-6,0a1,1,0,0,0-1,1v3a1,1,0,1,0,2,0v-3A1,1,0,0,0,52.58,1217.693Z" stroke="none"/>
      <path d="M 55.57994842529297 1232.299438476562 C 56.13470840454102 1232.299438476562 56.65649032592773 1232.083251953125 57.04919815063477 1231.690551757812 L 61.82369995117188 1226.916015625 C 63.51606750488281 1225.2236328125 64.44809722900391 1222.973510742188 64.44809722900391 1220.580078125 C 64.44809722900391 1218.1865234375 63.51606750488281 1215.936401367188 61.82369995117188 1214.244018554688 C 60.15617752075195 1212.576049804688 57.93877792358398 1211.657470703125 55.57994842529297 1211.657470703125 C 53.22111892700195 1211.657470703125 51.00371932983398 1212.576049804688 49.33619689941406 1214.244018554688 C 47.64382934570312 1215.936401367188 46.71179962158203 1218.1865234375 46.71179962158203 1220.580078125 C 46.71179962158203 1222.973510742188 47.64382934570312 1225.2236328125 49.33619689941406 1226.916015625 L 54.11069869995117 1231.690551757812 C 54.5034065246582 1232.083251953125 55.02518844604492 1232.299438476562 55.57994842529297 1232.299438476562 M 58.58009719848633 1217.69287109375 C 59.13144683837891 1217.69287109375 59.57999801635742 1218.141479492188 59.57999801635742 1218.692749023438 L 59.57999801635742 1221.6923828125 C 59.57999801635742 1222.243774414062 59.13144683837891 1222.6923828125 58.58009719848633 1222.6923828125 C 58.02874755859375 1222.6923828125 57.5802001953125 1222.243774414062 57.5802001953125 1221.6923828125 L 57.5802001953125 1218.692749023438 C 57.5802001953125 1218.141479492188 58.02874755859375 1217.69287109375 58.58009719848633 1217.69287109375 M 52.57979965209961 1217.69287109375 C 53.13114929199219 1217.69287109375 53.57969665527344 1218.141479492188 53.57969665527344 1218.692749023438 L 53.57969665527344 1221.6923828125 C 53.57969665527344 1222.243774414062 53.13114929199219 1222.6923828125 52.57979965209961 1222.6923828125 C 52.02845001220703 1222.6923828125 51.57989883422852 1222.243774414062 51.57989883422852 1221.6923828125 L 51.57989883422852 1218.692749023438 C 51.57989883422852 1218.141479492188 52.02845001220703 1217.69287109375 52.57979965209961 1217.69287109375 M 55.57994842529297 1234.299438476562 C 54.49092864990234 1234.299438476562 53.46689987182617 1233.875122070312 52.69649887084961 1233.104736328125 L 47.92197799682617 1228.330200195312 C 45.85186004638672 1226.260131835938 44.71179962158203 1223.507690429688 44.71179962158203 1220.580078125 C 44.71179962158203 1217.65234375 45.85186004638672 1214.89990234375 47.92197799682617 1212.829833984375 C 49.96706771850586 1210.7841796875 52.68678665161133 1209.657470703125 55.57994842529297 1209.657470703125 C 58.47311019897461 1209.657470703125 61.19282913208008 1210.7841796875 63.23809814453125 1212.829956054688 C 65.30803680419922 1214.89990234375 66.44809722900391 1217.65234375 66.44809722900391 1220.580078125 C 66.44809722900391 1223.507690429688 65.30803680419922 1226.260131835938 63.23791885375977 1228.330200195312 L 58.46341705322266 1233.104736328125 C 57.69299697875977 1233.875122070312 56.66896820068359 1234.299438476562 55.57994842529297 1234.299438476562 Z" stroke="none" fill="#fff"/>
    </g>
  </g>
</svg>
