<svg xmlns="http://www.w3.org/2000/svg" xmlns:xlink="http://www.w3.org/1999/xlink" width="30" height="30" viewBox="0 0 30 30">
  <defs>
    <clipPath id="clip-widget">
      <rect width="30" height="30"/>
    </clipPath>
    <clipPath id="clip">
      <use xlink:href="#fill"/>
    </clipPath>
    <clipPath id="clip-2">
      <use xlink:href="#fill-2"/>
    </clipPath>
  </defs>
  <g id="widget" clip-path="url(#clip-widget)">
    <g id="Path_62" data-name="Path 62" transform="translate(3.593 6.707)" fill="none">
      <path d="M3.365,0H19.449a3.365,3.365,0,0,1,3.365,3.365v9.857a3.365,3.365,0,0,1-3.365,3.365H3.365A3.365,3.365,0,0,1,0,13.222V3.365A3.365,3.365,0,0,1,3.365,0Z" stroke="none"/>
      <path d="M 3.364530563354492 2.000001907348633 C 2.612131118774414 2.000001907348633 2 2.612131118774414 2 3.364531517028809 L 2 13.22203159332275 C 2 13.97443199157715 2.612131118774414 14.58656120300293 3.364530563354492 14.58656120300293 L 19.44935035705566 14.58656120300293 C 20.20174980163574 14.58656120300293 20.81388092041016 13.97443199157715 20.81388092041016 13.22203159332275 L 20.81388092041016 3.364531517028809 C 20.81388092041016 2.612131118774414 20.20174980163574 2.000001907348633 19.44935035705566 2.000001907348633 L 3.364530563354492 2.000001907348633 M 3.364530563354492 1.9073486328125e-06 L 19.44935035705566 1.9073486328125e-06 C 21.30752944946289 1.9073486328125e-06 22.81388092041016 1.506351470947266 22.81388092041016 3.364531517028809 L 22.81388092041016 13.22203159332275 C 22.81388092041016 15.0802116394043 21.30752944946289 16.58656120300293 19.44935035705566 16.58656120300293 L 3.364530563354492 16.58656120300293 C 1.506349563598633 16.58656120300293 0 15.0802116394043 0 13.22203159332275 L 0 3.364531517028809 C 0 1.506351470947266 1.506349563598633 1.9073486328125e-06 3.364530563354492 1.9073486328125e-06 Z" stroke="none" fill="#fff"/>
    </g>
    <g id="Rectangle_10" data-name="Rectangle 10" transform="translate(14.171 10.577)" fill="none" stroke="#fff" stroke-width="70">
      <rect id="fill" width="1.659" height="8.846" rx="0.829" stroke="none"/>
      <path d="M0,-26.153833389282227h1.6586545705795288M35,0v8.846166610717773M1.6586545705795288,35h-1.6586545705795288M-33.34134542942047,8.846166610717773v-8.846166610717773" fill="none" clip-path="url(#clip)"/>
    </g>
    <g id="Rectangle_11" data-name="Rectangle 11" transform="translate(19.574 13.982) rotate(90)" fill="none" stroke="#fff" stroke-width="70">
      <rect id="fill-2" width="2.036" height="9.147" rx="1.018" stroke="none"/>
      <path d="M0,-25.852949142456055h2.036428689956665M35,0v9.147050857543945M2.036428689956665,35h-2.036428689956665M-32.963571310043335,9.147050857543945v-9.147050857543945" fill="none" clip-path="url(#clip-2)"/>
    </g>
  </g>
</svg>
